<?xml version="1.0" encoding="UTF-8" standalone="no"?>
<!-- Created with Inkscape (http://www.inkscape.org/) -->

<svg width="180.29" height="54" viewBox="0 0 76.229111 24.024172" version="1.1" id="svg1" xml:space="preserve"
	xmlns="http://www.w3.org/2000/svg"
	xmlns:svg="http://www.w3.org/2000/svg">
	<defs id="defs1">
		<style id="style1">
      .cls-1 {
        fill: #002139;
      }

      .cls-2 {
        fill: #0271eb;
      }
		</style>
		<style id="style1-5">
      .cls-1 {
        fill: #002139;
      }

      .cls-2 {
        fill: #0271eb;
      }
		</style>
	</defs>
	<g id="layer1" transform="translate(-61.539613,-135.06207)">
		<g id="g14" transform="matrix(0.26458333,0,0,0.26458333,-3.1298422,66.111646)">
			<path class="cls-2" d="m 249.46,344.83 v -0.04 c 0,-3.63 2.72,-6.6 6.59,-6.6 2.35,0 3.78,0.82 5,1.99 l -1.44,1.66 c -1.02,-0.95 -2.12,-1.59 -3.58,-1.59 -2.43,0 -4.21,2.01 -4.21,4.51 v 0.04 c 0,2.5 1.77,4.52 4.21,4.52 1.57,0 2.57,-0.62 3.67,-1.64 l 1.44,1.46 c -1.33,1.39 -2.79,2.26 -5.18,2.26 -3.72,0 -6.49,-2.9 -6.49,-6.57" id="path1" />
			<path class="cls-2" d="m 269.14,344.83 v -0.04 c 0,-3.59 2.77,-6.6 6.7,-6.6 3.93,0 6.66,2.97 6.66,6.57 v 0.04 c 0,3.59 -2.77,6.6 -6.7,6.6 -3.93,0 -6.66,-2.97 -6.66,-6.57 m 11,0 v -0.04 c 0,-2.48 -1.81,-4.54 -4.34,-4.54 -2.53,0 -4.31,2.02 -4.31,4.51 v 0.04 c 0,2.48 1.81,4.52 4.34,4.52 2.53,0 4.31,-2.01 4.31,-4.49" id="path2" />
			<polygon class="cls-2" points="297.99,348.04 293.99,342.06 293.99,351.18 291.78,351.18 291.78,338.41 294.17,338.41 298.06,344.45 301.95,338.41 304.34,338.41 304.34,351.18 302.09,351.18 302.09,342.02 298.06,348.04 " id="polygon2" />
			<polygon class="cls-2" points="320.38,348.04 316.38,342.06 316.38,351.18 314.17,351.18 314.17,338.41 316.56,338.41 320.45,344.45 324.34,338.41 326.73,338.41 326.73,351.18 324.48,351.18 324.48,342.02 320.45,348.04 " id="polygon3" />
			<path class="cls-2" d="m 336.37,345.76 v -7.35 h 2.24 v 7.26 c 0,2.37 1.22,3.63 3.23,3.63 2.01,0 3.21,-1.19 3.21,-3.54 v -7.35 h 2.24 v 7.24 c 0,3.81 -2.15,5.73 -5.49,5.73 -3.34,0 -5.44,-1.92 -5.44,-5.62" id="path3" />
			<polygon class="cls-2" points="356.93,351.18 356.93,338.41 359.01,338.41 365.85,347.24 365.85,338.41 368.06,338.41 368.06,351.18 366.18,351.18 359.14,342.09 359.14,351.18 " id="polygon4" />
			<rect class="cls-2" x="378.04999" y="338.41" width="2.24" height="12.77" id="rect4" />
			<path class="cls-2" d="m 389.71,344.83 v -0.04 c 0,-3.63 2.72,-6.6 6.59,-6.6 2.35,0 3.78,0.82 5,1.99 l -1.44,1.66 c -1.02,-0.95 -2.12,-1.59 -3.58,-1.59 -2.43,0 -4.21,2.01 -4.21,4.51 v 0.04 c 0,2.5 1.77,4.52 4.21,4.52 1.57,0 2.57,-0.62 3.67,-1.64 l 1.44,1.46 c -1.33,1.39 -2.79,2.26 -5.18,2.26 -3.72,0 -6.49,-2.9 -6.49,-6.57" id="path4" />
			<path class="cls-2" d="m 414.83,338.32 h 2.08 l 5.62,12.86 h -2.37 l -1.3,-3.08 h -6.04 l -1.31,3.08 h -2.3 z m 3.21,7.79 -2.21,-5.11 -2.19,5.11 z" id="path5" />
			<polygon class="cls-2" points="428.74,340.49 428.74,338.41 439.1,338.41 439.1,340.49 435.05,340.49 435.05,351.18 432.79,351.18 432.79,340.49 " id="polygon5" />
			<rect class="cls-2" x="448.16" y="338.41" width="2.24" height="12.77" id="rect5" />
			<path class="cls-2" d="m 459.82,344.83 v -0.04 c 0,-3.59 2.77,-6.6 6.7,-6.6 3.93,0 6.66,2.97 6.66,6.57 v 0.04 c 0,3.59 -2.77,6.6 -6.7,6.6 -3.93,0 -6.66,-2.97 -6.66,-6.57 m 11,0 v -0.04 c 0,-2.48 -1.81,-4.54 -4.34,-4.54 -2.53,0 -4.31,2.02 -4.31,4.51 v 0.04 c 0,2.48 1.81,4.52 4.34,4.52 2.53,0 4.31,-2.01 4.31,-4.49" id="path6" />
			<polygon class="cls-2" points="482.46,351.18 482.46,338.41 484.54,338.41 491.39,347.24 491.39,338.41 493.59,338.41 493.59,351.18 491.71,351.18 484.67,342.09 484.67,351.18 " id="polygon6" />
			<path class="cls-2" d="m 502.57,349.32 1.35,-1.6 c 1.22,1.06 2.46,1.66 4.03,1.66 1.39,0 2.26,-0.66 2.26,-1.6 v -0.04 c 0,-0.91 -0.51,-1.41 -2.88,-1.95 -2.72,-0.66 -4.25,-1.46 -4.25,-3.81 v -0.04 c 0,-2.19 1.82,-3.7 4.36,-3.7 1.86,0 3.34,0.57 4.63,1.6 l -1.2,1.7 c -1.15,-0.86 -2.3,-1.31 -3.47,-1.31 -1.31,0 -2.08,0.67 -2.08,1.52 v 0.04 c 0,0.98 0.58,1.42 3.05,2.01 2.7,0.66 4.09,1.62 4.09,3.74 v 0.04 c 0,2.39 -1.88,3.81 -4.56,3.81 -1.95,0 -3.79,-0.67 -5.33,-2.04" id="path7" />
			<path class="cls-1" d="m 288.92,315.54 c -4.48,3.72 -8.89,5.38 -14.31,5.38 -12.08,0 -21.55,-11.2 -21.55,-25.5 0,-14.3 9.27,-25.32 21.55,-25.32 5.19,0 9.43,1.53 13.76,4.97 l 1.44,1.15 6.23,-6.24 -1.72,-1.45 c -3.53,-2.98 -9.41,-6.94 -19.63,-6.94 -17.26,0 -30.27,14.62 -30.27,34 0,19.38 12.91,33.82 30.03,33.82 10.43,0 16.51,-4.43 20.18,-7.76 l 1.61,-1.45 -5.87,-5.86 z" id="path8" />
			<path class="cls-1" d="m 321.84,278.21 c -5.66,0 -10.45,1.89 -14.14,5.47 V 260.6 h -8.44 v 67.71 h 8.44 v -28.04 c 0,-8.09 5.69,-13.97 13.52,-13.97 7.83,0 12.2,4.95 12.2,13.26 v 28.75 h 8.44 v -29.54 c 0,-12.3 -8.05,-20.56 -20.03,-20.56" id="path9" />
			<path class="cls-1" d="m 367.51,278.57 c -7.09,0 -12.48,2.06 -16.81,4.07 l -1.8,0.84 3.21,7.68 1.99,-1.01 c 4.52,-2.31 8.7,-3.39 13.15,-3.39 5.66,0 12.36,1.95 12.7,10.97 -3.38,-0.76 -7.36,-1.36 -12.79,-1.36 -13.19,0 -21.7,6.55 -21.7,16.69 v 0.18 c 0,10.49 10,16.16 19.41,16.16 7,0 11.87,-2.59 15.11,-5.37 v 4.31 h 8.36 v -30.07 c 0,-12.32 -7.78,-19.68 -20.82,-19.68 m -13.35,34.19 c 0,-5.27 4.76,-8.41 12.73,-8.41 5.42,0 9.77,0.79 13.17,1.59 v 3.47 c 0,6.71 -6.42,11.76 -14.93,11.76 -5.45,0 -10.97,-2.83 -10.97,-8.24 z" id="path10" />
			<path class="cls-1" d="m 401.66,286.91 v -7.64 h -8.45 v 49.05 h 8.45 v -20.47 c 0,-14.08 8.74,-20.39 17.4,-20.39 h 2.5 v -8.87 h -1.98 c -6.81,0 -13.35,2.87 -17.92,8.33" id="path11" />
			<path class="cls-1" d="m 445.36,320.93 c -4.78,0 -6.92,-2.05 -6.92,-6.65 v -26.82 h 15.76 v -8.87 h -15.76 v -13.66 h -8.45 v 13.66 h -5.7 v 8.87 h 5.7 v 27.26 c 0,8.88 5.61,14.39 14.65,14.39 2.99,0 5.52,-0.55 8.17,-1.77 l 1.2,-0.55 v -8.56 l -2.91,1.3 c -2.29,1.03 -3.85,1.41 -5.76,1.41" id="path12" />
			<path class="cls-1" d="m 477.04,278.21 c -13.11,0 -23.38,11.2 -23.38,25.49 v 0.18 c 0,14.53 10.35,25.49 24.08,25.49 10.31,0 16.16,-4.87 20.1,-9.11 l 1.44,-1.55 -6.09,-5.37 -1.37,1.47 c -4.07,4.36 -8.49,6.39 -13.9,6.39 -6.46,0 -13.67,-4.27 -15.28,-13.57 h 36.87 l 0.09,-1.81 0.1,-1.84 v -0.17 c 0,-15.06 -9.32,-25.58 -22.67,-25.58 m -0.17,8.08 c 8.65,0 12.7,6.53 13.79,13.31 h -27.94 c 1.47,-7.82 7.12,-13.31 14.15,-13.31" id="path13" />
			<path class="cls-1" d="m 530.55,278.56 c -6.85,-0.27 -13.36,2.88 -17.92,8.34 v -7.64 h -8.44 v 49.05 h 8.44 v -20.47 c 0,-14.08 8.74,-20.39 17.4,-20.39 h 2.5 v -8.81 z" id="path14" />
		</g>
	</g>
</svg>
